<svg width="24" height="24" viewBox="0 0 24 24" fill="none" xmlns="http://www.w3.org/2000/svg">
<rect x="0.5" y="0.5" width="23" height="23" rx="3.5" fill="#E6EBF9"/>
<rect x="0.5" y="0.5" width="23" height="23" rx="3.5" stroke="#E6EBF9"/>
<path fill-rule="evenodd" clip-rule="evenodd" d="M10 6.5C10.2761 6.5 10.5 6.72386 10.5 7V7.5H13.5V7C13.5 6.72386 13.7239 6.5 14 6.5C14.2761 6.5 14.5 6.72386 14.5 7V7.5H15C16.1046 7.5 17 8.39543 17 9.5V15C17 16.1046 16.1046 17 15 17H9C7.89543 17 7 16.1046 7 15V9.5C7 8.39543 7.89543 7.5 9 7.5H9.5V7C9.5 6.72386 9.72386 6.5 10 6.5ZM13.5 8.5C13.5 8.77614 13.7239 9 14 9C14.2761 9 14.5 8.77614 14.5 8.5H15C15.5523 8.5 16 8.94772 16 9.5V9.75H8V9.5C8 8.94772 8.44772 8.5 9 8.5H9.5C9.5 8.77614 9.72386 9 10 9C10.2761 9 10.5 8.77614 10.5 8.5H13.5ZM16 10.75H8V15C8 15.5523 8.44772 16 9 16H15C15.5523 16 16 15.5523 16 15V10.75Z" fill="#335DCF"/>
</svg>
