<svg width="24" height="24" viewBox="0 0 24 24" fill="none" xmlns="http://www.w3.org/2000/svg">
<rect x="0.5" y="0.5" width="23" height="23" rx="3.5" fill="#E6EBF9"/>
<rect x="0.5" y="0.5" width="23" height="23" rx="3.5" stroke="#E6EBF9"/>
<path d="M12 10.25C12 9.97386 11.7761 9.75 11.5 9.75C11.2239 9.75 11 9.97386 11 10.25V12.75C11 13.0261 11.2239 13.25 11.5 13.25H13C13.2761 13.25 13.5 13.0261 13.5 12.75C13.5 12.4739 13.2761 12.25 13 12.25H12V10.25Z" fill="#335DCF"/>
<path fill-rule="evenodd" clip-rule="evenodd" d="M12 7C9.23858 7 7 9.23858 7 12C7 14.7614 9.23858 17 12 17C14.7614 17 17 14.7614 17 12C17 9.23858 14.7614 7 12 7ZM8 12C8 9.79086 9.79086 8 12 8C14.2091 8 16 9.79086 16 12C16 14.2091 14.2091 16 12 16C9.79086 16 8 14.2091 8 12Z" fill="#335DCF"/>
</svg>
