<svg width="16" height="16" viewBox="0 0 16 16" fill="none" xmlns="http://www.w3.org/2000/svg">
<path d="M4.00001 5.66669C4.00001 5.2985 4.29849 5.00002 4.66668 5.00002H8.00001C8.3682 5.00002 8.66668 5.2985 8.66668 5.66669C8.66668 6.03488 8.3682 6.33335 8.00001 6.33335H4.66668C4.29849 6.33335 4.00001 6.03488 4.00001 5.66669Z" fill="black" fill-opacity="0.48"/>
<path d="M4.66668 7.66669C4.29849 7.66669 4.00001 7.96516 4.00001 8.33335C4.00001 8.70154 4.29849 9.00002 4.66668 9.00002H10.6667C11.0349 9.00002 11.3333 8.70154 11.3333 8.33335C11.3333 7.96516 11.0349 7.66669 10.6667 7.66669H4.66668Z" fill="black" fill-opacity="0.48"/>
<path fill-rule="evenodd" clip-rule="evenodd" d="M10.2667 13.3L11.2 12.6C11.4308 12.4269 11.7115 12.3334 12 12.3334C13.4728 12.3334 14.6667 11.1394 14.6667 9.66669V4.33335C14.6667 2.86059 13.4728 1.66669 12 1.66669L4.00001 1.66669C2.52725 1.66669 1.33334 2.86059 1.33334 4.33335L1.33334 9.66669C1.33334 11.1394 2.52725 12.3334 4.00001 12.3334H5.33334C5.62184 12.3334 5.90255 12.4269 6.13334 12.6L7.06668 13.3C8.01483 14.0111 9.31853 14.0111 10.2667 13.3ZM12 11C11.423 11 10.8616 11.1872 10.4 11.5334L9.46668 12.2334C8.9926 12.5889 8.34075 12.5889 7.86668 12.2334L6.93334 11.5334C6.47175 11.1872 5.91033 11 5.33334 11H4.00001C3.26363 11 2.66668 10.4031 2.66668 9.66669V4.33335C2.66668 3.59697 3.26363 3.00002 4.00001 3.00002L12 3.00002C12.7364 3.00002 13.3333 3.59697 13.3333 4.33335V9.66669C13.3333 10.4031 12.7364 11 12 11Z" fill="black" fill-opacity="0.48"/>
</svg>
