<svg width="21" height="21" viewBox="0 0 21 21" fill="none" xmlns="http://www.w3.org/2000/svg">
<path d="M10.5 7.38938C10.5 6.92915 10.1269 6.55605 9.66669 6.55605C9.20645 6.55605 8.83335 6.92915 8.83335 7.38938V11.5561C8.83335 12.0163 9.20645 12.3894 9.66669 12.3894H12.1667C12.6269 12.3894 13 12.0163 13 11.5561C13 11.0958 12.6269 10.7227 12.1667 10.7227H10.5V7.38938Z" fill="black"/>
<path fill-rule="evenodd" clip-rule="evenodd" d="M10.5 1.97272C5.89765 1.97272 2.16669 5.70368 2.16669 10.3061C2.16669 14.9084 5.89765 18.6394 10.5 18.6394C15.1024 18.6394 18.8334 14.9084 18.8334 10.3061C18.8334 5.70368 15.1024 1.97272 10.5 1.97272ZM3.83335 10.3061C3.83335 6.62415 6.81812 3.63938 10.5 3.63938C14.1819 3.63938 17.1667 6.62415 17.1667 10.3061C17.1667 13.9879 14.1819 16.9727 10.5 16.9727C6.81812 16.9727 3.83335 13.9879 3.83335 10.3061Z" fill="black"/>
</svg>
