<svg width="21" height="21" viewBox="0 0 21 21" fill="none" xmlns="http://www.w3.org/2000/svg">
<path fill-rule="evenodd" clip-rule="evenodd" d="M10.5 1.97266C8.19879 1.97266 6.33331 3.83814 6.33331 6.13932C6.33331 8.44051 8.19879 10.306 10.5 10.306C12.8012 10.306 14.6666 8.44051 14.6666 6.13932C14.6666 3.83814 12.8012 1.97266 10.5 1.97266ZM7.99998 6.13932C7.99998 4.75861 9.11927 3.63932 10.5 3.63932C11.8807 3.63932 13 4.75861 13 6.13932C13 7.52003 11.8807 8.63932 10.5 8.63932C9.11927 8.63932 7.99998 7.52003 7.99998 6.13932Z" fill="black"/>
<path fill-rule="evenodd" clip-rule="evenodd" d="M10.5 19.4727C9.21623 19.4727 7.35816 19.1812 5.96284 18.5705C5.27784 18.2707 4.58119 17.8416 4.17644 17.2205C3.96358 16.8938 3.82901 16.5091 3.83342 16.0795C3.83779 15.6539 3.97785 15.2461 4.21324 14.8667C5.35441 13.0273 7.68897 11.1393 10.5 11.1393C13.311 11.1393 15.6455 13.0273 16.7867 14.8667C17.0221 15.2461 17.1622 15.6539 17.1665 16.0795C17.171 16.5091 17.0364 16.8938 16.8235 17.2205C16.4188 17.8416 15.7221 18.2707 15.0371 18.5705C13.6418 19.1812 11.7837 19.4727 10.5 19.4727ZM5.62947 15.7453C5.51974 15.9222 5.50062 16.0358 5.5 16.0966C5.49941 16.1535 5.51403 16.2204 5.57278 16.3105C5.71126 16.523 6.04754 16.7882 6.63108 17.0436C7.77285 17.5434 9.39434 17.806 10.5 17.806C11.6056 17.806 13.2271 17.5434 14.3689 17.0436C14.9524 16.7882 15.2887 16.523 15.4272 16.3105C15.4859 16.2204 15.5005 16.1535 15.5 16.0966C15.4993 16.0358 15.4802 15.9222 15.3705 15.7453C14.4354 14.2381 12.5703 12.806 10.5 12.806C8.4297 12.806 6.5646 14.2381 5.62947 15.7453Z" fill="black"/>
</svg>
